Coordinates
version=1
nRows=14
nColumns=33
inDegrees=yes

Units are S.I. units (second, meters, Newtons, ...)
Angles are in degrees.

endheader
time	ground_thorax_rot_x	ground_thorax_rot_y	ground_thorax_rot_z	ground_thorax_tx	ground_thorax_ty	ground_thorax_tz	clav_prot_r	clav_elev_r	scapula_abduction_r	scapula_elevation_r	scapula_upward_rot_r	scapula_winging_r	shoulder_elv_r	plane_of_elev_r	axial_rot_r	elbow_flexion_r	pro_sup_r	wrist_flex_r	wrist_dev_r	clav_prot_l	clav_elev_l	scapula_abduction_l	scapula_elevation_l	scapula_upward_rot_l	scapula_winging_l	shoulder_elv_l	plane_of_elev_l	axial_rot_l	elbow_flexion_l	pro_sup_l	wrist_flex_l	wrist_dev_l	
11.0000	40.496975	14.224940	11.912662	-177.835161	812.408651	3.997607	-3.015082	41.545537	45.000000	45.000000	32.019868	-836.258613	-2456.465829	18.612403	-180.000000	2168.141551	-125.329718	16.621925	12.717859	-2.864554	-45.000000	-45.000000	45.000000	20.259501	-969.095569	-2436.770222	13.434266	180.000000	-712.645463	-154.141922	11.781865	-15.056364	
11.0100	40.534857	14.119468	11.842559	-179.684258	813.604335	4.036214	-3.003569	41.522244	45.000000	45.000000	31.970550	-836.233516	-2456.311944	18.681608	-180.000000	2168.171028	-125.906493	16.651907	12.777280	-2.811598	-45.000000	-45.000000	45.000000	20.355055	-969.042675	-2436.527278	13.439679	180.000000	-712.612900	-154.240351	11.855273	-15.110087	
11.0200	40.567699	14.016507	11.771799	-181.516552	814.789871	4.059938	-2.992078	41.496979	45.000000	45.000000	31.917092	-836.211630	-2456.161408	18.747649	-180.000000	2168.199399	-126.497856	16.681559	12.839494	-2.755975	-45.000000	-45.000000	45.000000	20.433718	-968.995023	-2436.285673	13.444783	180.000000	-712.581206	-154.336953	11.925590	-15.162890	
11.0300	40.595759	13.916186	11.703120	-183.331235	815.963774	4.067711	-2.979303	41.469825	45.000000	45.000000	31.852988	-836.188957	-2456.015620	18.811119	-180.000000	2168.228230	-127.096751	16.710511	12.904382	-2.697581	-45.000000	-44.999999	45.000000	20.498289	-968.950109	-2436.044702	13.448804	180.000000	-712.547983	-154.433622	11.992110	-15.213308	
11.0400	40.618749	13.819852	11.636588	-185.127725	817.125116	4.059499	-2.965240	41.441703	45.000000	45.000000	31.778368	-836.165836	-2455.873327	18.871680	-180.000000	2168.257665	-127.696436	16.738756	12.971356	-2.636879	-45.000000	-44.999998	45.000000	20.548241	-968.908680	-2435.804858	13.453105	180.000000	-712.514230	-154.531691	12.054892	-15.261884	
11.0500	40.637980	13.725485	11.571138	-186.905568	818.273470	4.036227	-2.950640	41.414987	45.000000	45.000000	31.695919	-836.142591	-2455.735400	18.930007	-180.000000	2168.288156	-128.290943	16.766146	13.039770	-2.573993	-45.000000	-44.999997	45.000000	20.585955	-968.869167	-2435.567794	13.457176	180.000000	-712.479628	-154.631438	12.113795	-15.308674	
11.0600	40.654718	13.633618	11.506643	-188.664561	819.408953	3.999557	-2.936135	41.391371	45.000000	45.000000	31.608498	-836.120134	-2455.600611	18.987399	-180.000000	2168.321051	-128.876045	16.791809	13.108877	-2.508045	-45.000000	-44.999995	45.000000	20.610093	-968.831472	-2435.334790	13.461513	180.000000	-712.445266	-154.732384	12.168606	-15.354323	
11.0700	40.669795	13.542581	11.443136	-190.404484	820.531932	3.951585	-2.922266	41.371187	45.000000	45.000000	31.518891	-836.098290	-2455.468905	19.044999	-180.000000	2168.358551	-129.449286	16.815183	13.178353	-2.438296	-45.000000	-44.999991	45.000000	20.620282	-968.794706	-2435.106602	13.465575	180.000000	-712.411662	-154.833248	12.219254	-15.399453	
11.0800	40.683644	13.450943	11.378117	-192.125403	821.643041	3.894586	-2.909675	41.354146	45.000000	45.000000	31.433243	-836.080797	-2455.339866	19.101849	-180.000000	2168.396903	-130.008846	16.838451	13.247733	-2.365764	-45.000000	-44.999984	45.000000	20.616593	-968.760118	-2434.884292	13.469509	180.000000	-712.381021	-154.932164	12.266928	-15.446370	
11.0900	40.696233	13.357988	11.311354	-193.827324	822.742729	3.830834	-2.898605	41.339148	45.000000	45.000000	31.352320	-836.068803	-2455.213403	19.157864	-180.000000	2168.434647	-130.553352	16.862532	13.316498	-2.290739	-45.000000	-44.999972	45.000000	20.599671	-968.728017	-2434.668539	13.473596	180.000000	-712.354330	-155.026820	12.311929	-15.496047	
11.1000	40.707280	13.264041	11.243037	-195.510215	823.831052	3.762509	-2.888364	41.324149	45.000000	45.000000	31.273462	-836.061673	-2455.090292	19.211702	-180.000000	2168.469922	-131.081670	16.888825	13.384418	-2.214137	-45.000000	-44.999949	45.000000	20.570614	-968.698573	-2434.459326	13.478056	180.000000	-712.331906	-155.114853	12.354747	-15.549333	
11.1100	40.716680	13.168315	11.172281	-197.173613	824.907263	3.691675	-2.878010	41.308004	45.000000	45.000000	31.192348	-836.058147	-2454.971742	19.263161	-180.000000	2168.499880	-131.593045	16.918670	13.451118	-2.136673	-45.000000	-44.999909	45.000000	20.531045	-968.671933	-2434.257709	13.483822	180.000000	-712.314752	-155.194353	12.395523	-15.606602	
11.1200	40.724767	13.069802	11.098759	-198.816660	825.969761	3.620264	-2.866940	41.289570	45.000000	45.000000	31.107140	-836.057100	-2454.859242	19.311007	-180.000000	2168.522856	-132.086021	16.952943	13.516136	-2.059608	-45.000000	-44.999837	45.000000	20.483648	-968.647352	-2434.063748	13.489968	180.000000	-712.302282	-155.263920	12.434465	-15.667670	
11.1300	40.732268	12.966477	11.020710	-200.437723	827.015877	3.550051	-2.854501	41.269034	45.000000	45.000000	31.014957	-836.057354	-2454.753840	19.356481	-180.000000	2168.537368	-132.559633	16.992248	13.579203	-1.983282	-45.000000	-44.999707	45.000000	20.428466	-968.624401	-2433.879148	13.496461	180.000000	-712.295769	-155.323351	12.471548	-15.732348	
